<svg xmlns="http://www.w3.org/2000/svg" xmlns:xlink="http://www.w3.org/1999/xlink" width="1024" zoomAndPan="magnify" viewBox="0 0 768 418.499988" height="558" preserveAspectRatio="xMidYMid meet" version="1.0"><defs><clipPath id="7204a34256"><path d="M 313.34375 241.613281 L 332.199219 241.613281 L 332.199219 260.464844 L 313.34375 260.464844 Z M 313.34375 241.613281 " clip-rule="nonzero"/></clipPath><clipPath id="70d44e397f"><path d="M 322.769531 241.613281 C 317.566406 241.613281 313.34375 245.832031 313.34375 251.039062 C 313.34375 256.246094 317.566406 260.464844 322.769531 260.464844 C 327.976562 260.464844 332.199219 256.246094 332.199219 251.039062 C 332.199219 245.832031 327.976562 241.613281 322.769531 241.613281 Z M 322.769531 241.613281 " clip-rule="nonzero"/></clipPath><clipPath id="3f3623c0cb"><path d="M 322.769531 246.164062 L 327.644531 246.164062 L 327.644531 251.039062 L 322.769531 251.039062 Z M 322.769531 246.164062 " clip-rule="nonzero"/></clipPath><clipPath id="8498e67bd8"><path d="M 325.207031 246.164062 C 323.863281 246.164062 322.769531 247.257812 322.769531 248.601562 C 322.769531 249.949219 323.863281 251.039062 325.207031 251.039062 C 326.554688 251.039062 327.644531 249.949219 327.644531 248.601562 C 327.644531 247.257812 326.554688 246.164062 325.207031 246.164062 Z M 325.207031 246.164062 " clip-rule="nonzero"/></clipPath><clipPath id="2e55fd6f81"><path d="M 399.660156 241.613281 L 418.515625 241.613281 L 418.515625 260.464844 L 399.660156 260.464844 Z M 399.660156 241.613281 " clip-rule="nonzero"/></clipPath><clipPath id="ce5b229ce6"><path d="M 409.089844 241.613281 C 403.882812 241.613281 399.660156 245.832031 399.660156 251.039062 C 399.660156 256.246094 403.882812 260.464844 409.089844 260.464844 C 414.292969 260.464844 418.515625 256.246094 418.515625 251.039062 C 418.515625 245.832031 414.292969 241.613281 409.089844 241.613281 Z M 409.089844 241.613281 " clip-rule="nonzero"/></clipPath><clipPath id="bae9271db7"><path d="M 409.089844 246.164062 L 413.960938 246.164062 L 413.960938 251.039062 L 409.089844 251.039062 Z M 409.089844 246.164062 " clip-rule="nonzero"/></clipPath><clipPath id="ee38e4e3b2"><path d="M 411.523438 246.164062 C 410.179688 246.164062 409.089844 247.257812 409.089844 248.601562 C 409.089844 249.949219 410.179688 251.039062 411.523438 251.039062 C 412.871094 251.039062 413.960938 249.949219 413.960938 248.601562 C 413.960938 247.257812 412.871094 246.164062 411.523438 246.164062 Z M 411.523438 246.164062 " clip-rule="nonzero"/></clipPath></defs><g clip-path="url(#7204a34256)"><g clip-path="url(#70d44e397f)"><path fill="#202736" d="M 313.34375 241.613281 L 332.199219 241.613281 L 332.199219 260.464844 L 313.34375 260.464844 Z M 313.34375 241.613281 " fill-opacity="1" fill-rule="nonzero"/></g></g><g clip-path="url(#3f3623c0cb)"><g clip-path="url(#8498e67bd8)"><path fill="#3c4250" d="M 322.769531 246.164062 L 327.644531 246.164062 L 327.644531 251.039062 L 322.769531 251.039062 Z M 322.769531 246.164062 " fill-opacity="1" fill-rule="nonzero"/></g></g><g clip-path="url(#2e55fd6f81)"><g clip-path="url(#ce5b229ce6)"><path fill="#202736" d="M 399.660156 241.613281 L 418.515625 241.613281 L 418.515625 260.464844 L 399.660156 260.464844 Z M 399.660156 241.613281 " fill-opacity="1" fill-rule="nonzero"/></g></g><g clip-path="url(#bae9271db7)"><g clip-path="url(#ee38e4e3b2)"><path fill="#3c4250" d="M 409.089844 246.164062 L 413.960938 246.164062 L 413.960938 251.039062 L 409.089844 251.039062 Z M 409.089844 246.164062 " fill-opacity="1" fill-rule="nonzero"/></g></g></svg>